<mxfile host="app.diagrams.net" modified="2020-12-22T09:50:42.075Z" agent="5.0 (Windows NT 10.0; Win64; x64) AppleWebKit/537.36 (KHTML, like Gecko) Chrome/87.0.4280.88 Safari/537.36" etag="o_BvzBPmZL8ywD4XZ5KW" version="14.1.1" type="github">
  <diagram id="Xaw3y7m2BAXYYJtlHXCn" name="Page-1">
    <mxGraphModel dx="782" dy="380" grid="1" gridSize="10" guides="1" tooltips="1" connect="1" arrows="1" fold="1" page="1" pageScale="1" pageWidth="1169" pageHeight="827" math="0" shadow="0">
      <root>
        <mxCell id="0" />
        <mxCell id="1" parent="0" />
        <mxCell id="1ENP_768lPTiWEfWRTLd-1" value="Virtual Entity:&lt;br style=&quot;font-size: 11px&quot;&gt;Soil" style="rounded=0;whiteSpace=wrap;html=1;fontStyle=2;fillColor=#d5e8d4;strokeColor=#82b366;fontSize=11;" parent="1" vertex="1">
          <mxGeometry x="230" y="40" width="140" height="40" as="geometry" />
        </mxCell>
        <mxCell id="1ENP_768lPTiWEfWRTLd-2" value="EntityType: Soil&lt;br style=&quot;font-size: 11px&quot;&gt;ID: Soil1" style="rounded=0;whiteSpace=wrap;html=1;fontStyle=2;fillColor=#d5e8d4;strokeColor=#82b366;fontSize=11;" parent="1" vertex="1">
          <mxGeometry x="230" y="80" width="140" height="40" as="geometry" />
        </mxCell>
        <mxCell id="1ENP_768lPTiWEfWRTLd-24" style="edgeStyle=orthogonalEdgeStyle;rounded=0;orthogonalLoop=1;jettySize=auto;html=1;exitX=0;exitY=1;exitDx=0;exitDy=0;entryX=1;entryY=1;entryDx=0;entryDy=0;endArrow=open;endFill=0;" parent="1" source="1ENP_768lPTiWEfWRTLd-3" target="1ENP_768lPTiWEfWRTLd-1" edge="1">
          <mxGeometry relative="1" as="geometry">
            <Array as="points">
              <mxPoint x="540" y="80" />
              <mxPoint x="540" y="80" />
            </Array>
          </mxGeometry>
        </mxCell>
        <mxCell id="1ENP_768lPTiWEfWRTLd-3" value="Virtual Entity:&lt;br style=&quot;font-size: 11px&quot;&gt;Motor" style="rounded=0;whiteSpace=wrap;html=1;fontStyle=2;fillColor=#d5e8d4;strokeColor=#82b366;fontSize=11;" parent="1" vertex="1">
          <mxGeometry x="710" y="40" width="140" height="40" as="geometry" />
        </mxCell>
        <mxCell id="1ENP_768lPTiWEfWRTLd-4" value="EntityType: Motor&lt;br style=&quot;font-size: 11px&quot;&gt;ID: Motor1&lt;br style=&quot;font-size: 11px&quot;&gt;" style="rounded=0;whiteSpace=wrap;html=1;fontStyle=2;fillColor=#d5e8d4;strokeColor=#82b366;fontSize=11;" parent="1" vertex="1">
          <mxGeometry x="710" y="80" width="140" height="40" as="geometry" />
        </mxCell>
        <mxCell id="1ENP_768lPTiWEfWRTLd-26" style="edgeStyle=orthogonalEdgeStyle;rounded=0;orthogonalLoop=1;jettySize=auto;html=1;exitX=0.5;exitY=0;exitDx=0;exitDy=0;endArrow=diamond;endFill=1;" parent="1" source="1ENP_768lPTiWEfWRTLd-9" edge="1">
          <mxGeometry relative="1" as="geometry">
            <mxPoint x="300" y="120" as="targetPoint" />
          </mxGeometry>
        </mxCell>
        <mxCell id="1ENP_768lPTiWEfWRTLd-9" value="Attribute: Soil" style="rounded=0;whiteSpace=wrap;html=1;fontStyle=2;fillColor=#fff2cc;strokeColor=#d6b656;fontSize=11;" parent="1" vertex="1">
          <mxGeometry x="240" y="150" width="140" height="40" as="geometry" />
        </mxCell>
        <mxCell id="1ENP_768lPTiWEfWRTLd-32" style="edgeStyle=orthogonalEdgeStyle;rounded=0;orthogonalLoop=1;jettySize=auto;html=1;exitX=0.5;exitY=1;exitDx=0;exitDy=0;entryX=0.5;entryY=0;entryDx=0;entryDy=0;endArrow=open;endFill=0;" parent="1" source="1ENP_768lPTiWEfWRTLd-10" target="1ENP_768lPTiWEfWRTLd-18" edge="1">
          <mxGeometry relative="1" as="geometry" />
        </mxCell>
        <mxCell id="1ENP_768lPTiWEfWRTLd-33" style="edgeStyle=orthogonalEdgeStyle;rounded=0;orthogonalLoop=1;jettySize=auto;html=1;exitX=0.5;exitY=1;exitDx=0;exitDy=0;entryX=0.5;entryY=0;entryDx=0;entryDy=0;endArrow=open;endFill=0;" parent="1" source="1ENP_768lPTiWEfWRTLd-10" target="1ENP_768lPTiWEfWRTLd-19" edge="1">
          <mxGeometry relative="1" as="geometry" />
        </mxCell>
        <mxCell id="1ENP_768lPTiWEfWRTLd-10" value="AttributeName: moisture&lt;br style=&quot;font-size: 11px&quot;&gt;AttributeType: Moisture" style="rounded=0;whiteSpace=wrap;html=1;fontStyle=2;fillColor=#fff2cc;strokeColor=#d6b656;fontSize=11;" parent="1" vertex="1">
          <mxGeometry x="240" y="190" width="140" height="40" as="geometry" />
        </mxCell>
        <mxCell id="1ENP_768lPTiWEfWRTLd-28" style="edgeStyle=orthogonalEdgeStyle;rounded=0;orthogonalLoop=1;jettySize=auto;html=1;exitX=0.5;exitY=0;exitDx=0;exitDy=0;endArrow=diamond;endFill=1;" parent="1" source="1ENP_768lPTiWEfWRTLd-13" edge="1">
          <mxGeometry relative="1" as="geometry">
            <mxPoint x="779.9999999999998" y="120" as="targetPoint" />
          </mxGeometry>
        </mxCell>
        <mxCell id="1ENP_768lPTiWEfWRTLd-13" value="Attribute: State" style="rounded=0;whiteSpace=wrap;html=1;fontStyle=2;fillColor=#fff2cc;strokeColor=#d6b656;fontSize=11;" parent="1" vertex="1">
          <mxGeometry x="710" y="150" width="140" height="40" as="geometry" />
        </mxCell>
        <mxCell id="1ENP_768lPTiWEfWRTLd-36" style="edgeStyle=orthogonalEdgeStyle;rounded=0;orthogonalLoop=1;jettySize=auto;html=1;exitX=0.5;exitY=1;exitDx=0;exitDy=0;entryX=0.5;entryY=0;entryDx=0;entryDy=0;endArrow=open;endFill=0;" parent="1" source="1ENP_768lPTiWEfWRTLd-14" target="1ENP_768lPTiWEfWRTLd-22" edge="1">
          <mxGeometry relative="1" as="geometry" />
        </mxCell>
        <mxCell id="1ENP_768lPTiWEfWRTLd-37" style="edgeStyle=orthogonalEdgeStyle;rounded=0;orthogonalLoop=1;jettySize=auto;html=1;exitX=0.5;exitY=1;exitDx=0;exitDy=0;entryX=0.5;entryY=0;entryDx=0;entryDy=0;endArrow=open;endFill=0;" parent="1" source="1ENP_768lPTiWEfWRTLd-14" target="1ENP_768lPTiWEfWRTLd-23" edge="1">
          <mxGeometry relative="1" as="geometry" />
        </mxCell>
        <mxCell id="1ENP_768lPTiWEfWRTLd-14" value="AttributeName: motor&lt;br style=&quot;font-size: 11px&quot;&gt;AttributeType: state" style="rounded=0;whiteSpace=wrap;html=1;fontStyle=2;fillColor=#fff2cc;strokeColor=#d6b656;fontSize=11;" parent="1" vertex="1">
          <mxGeometry x="710" y="190" width="140" height="40" as="geometry" />
        </mxCell>
        <mxCell id="1ENP_768lPTiWEfWRTLd-18" value="Moisture:low" style="rounded=0;whiteSpace=wrap;html=1;fontStyle=2;fillColor=#f5f5f5;strokeColor=#666666;fontColor=#333333;fontSize=11;" parent="1" vertex="1">
          <mxGeometry x="180" y="270" width="80" height="40" as="geometry" />
        </mxCell>
        <mxCell id="1ENP_768lPTiWEfWRTLd-19" value="Moisture:high" style="rounded=0;whiteSpace=wrap;html=1;fontStyle=2;fillColor=#f5f5f5;strokeColor=#666666;fontColor=#333333;fontSize=11;" parent="1" vertex="1">
          <mxGeometry x="350" y="270" width="80" height="40" as="geometry" />
        </mxCell>
        <mxCell id="1ENP_768lPTiWEfWRTLd-22" value="State:on" style="rounded=0;whiteSpace=wrap;html=1;fontStyle=2;fillColor=#f5f5f5;strokeColor=#666666;fontColor=#333333;fontSize=11;" parent="1" vertex="1">
          <mxGeometry x="660" y="270" width="80" height="40" as="geometry" />
        </mxCell>
        <mxCell id="1ENP_768lPTiWEfWRTLd-23" value="State:off" style="rounded=0;whiteSpace=wrap;html=1;fontStyle=2;fillColor=#f5f5f5;strokeColor=#666666;fontColor=#333333;fontSize=11;" parent="1" vertex="1">
          <mxGeometry x="810" y="270" width="80" height="40" as="geometry" />
        </mxCell>
      </root>
    </mxGraphModel>
  </diagram>
</mxfile>
